<svg width="1200" height="680" viewBox="0 0 1200 680" fill="none" xmlns="http://www.w3.org/2000/svg" role="img" aria-labelledby="title desc">
  <title id="title">Lobster architecture diagram</title>
  <desc id="desc">Flow from meeting platforms into Lobster bridge and OpenClaw gateway, then to actions and channels.</desc>
  <defs>
    <linearGradient id="bg" x1="0" y1="0" x2="1200" y2="680" gradientUnits="userSpaceOnUse">
      <stop stop-color="#0F172A"/>
      <stop offset="1" stop-color="#111827"/>
    </linearGradient>
    <linearGradient id="lobster" x1="0" y1="0" x2="1" y2="1">
      <stop stop-color="#FF6A00"/>
      <stop offset="1" stop-color="#FF4500"/>
    </linearGradient>
    <filter id="shadow" x="-50%" y="-50%" width="200%" height="200%">
      <feDropShadow dx="0" dy="8" stdDeviation="12" flood-opacity="0.2" flood-color="#000"/>
    </filter>
    <style>
      .h1 { font: 700 42px Inter, system-ui, -apple-system, Segoe UI, sans-serif; fill: #F9FAFB; }
      .sub { font: 500 20px Inter, system-ui, -apple-system, Segoe UI, sans-serif; fill: #CBD5E1; }
      .label { font: 600 22px Inter, system-ui, -apple-system, Segoe UI, sans-serif; fill: #F8FAFC; }
      .body { font: 500 18px Inter, system-ui, -apple-system, Segoe UI, sans-serif; fill: #E2E8F0; }
      .tiny { font: 500 15px Inter, system-ui, -apple-system, Segoe UI, sans-serif; fill: #94A3B8; }
      .chip { font: 600 15px Inter, system-ui, -apple-system, Segoe UI, sans-serif; fill: #0B1220; }
    </style>
  </defs>

  <rect width="1200" height="680" rx="20" fill="url(#bg)"/>

  <text x="56" y="78" class="h1">Lobster: Active Meeting AI on OpenClaw</text>
  <text x="56" y="112" class="sub">While others record, Lobster participates in real time.</text>

  <rect x="56" y="170" width="260" height="320" rx="18" fill="#1E293B" stroke="#334155" filter="url(#shadow)"/>
  <text x="84" y="214" class="label">Meeting Inputs</text>
  <text x="84" y="254" class="body">Google Meet</text>
  <text x="84" y="286" class="body">Zoom / Teams</text>
  <text x="84" y="318" class="body">Recall.ai events</text>
  <text x="84" y="350" class="body">Transcript stream</text>

  <rect x="404" y="150" width="390" height="360" rx="20" fill="url(#lobster)" filter="url(#shadow)"/>
  <text x="438" y="202" class="label">Lobster Bridge</text>
  <text x="438" y="238" class="body">- /launch + /webhook</text>
  <text x="438" y="270" class="body">- Live transcript reasoning</text>
  <text x="438" y="302" class="body">- Privacy + audience controls</text>
  <text x="438" y="334" class="body">- Auth + Funnel safeguards</text>
  <rect x="438" y="366" width="236" height="40" rx="20" fill="#FCD34D"/>
  <text x="455" y="392" class="chip">Real-time value, not after-the-fact</text>

  <rect x="872" y="170" width="274" height="150" rx="18" fill="#1D4ED8" filter="url(#shadow)"/>
  <text x="900" y="214" class="label">OpenClaw Gateway</text>
  <text x="900" y="248" class="body">/hooks/wake + /hooks/agent</text>
  <text x="900" y="280" class="body">Agent orchestration</text>

  <rect x="872" y="342" width="274" height="148" rx="18" fill="#0F766E" filter="url(#shadow)"/>
  <text x="900" y="386" class="label">Actions + Delivery</text>
  <text x="900" y="420" class="body">Research, suggestions, assets</text>
  <text x="900" y="452" class="body">Telegram / Discord / WhatsApp</text>

  <path d="M316 330H390" stroke="#94A3B8" stroke-width="5" stroke-linecap="round"/>
  <path d="M790 250H860" stroke="#94A3B8" stroke-width="5" stroke-linecap="round"/>
  <path d="M790 410H860" stroke="#94A3B8" stroke-width="5" stroke-linecap="round"/>

  <polygon points="390,322 390,338 404,330" fill="#94A3B8"/>
  <polygon points="860,242 860,258 872,250" fill="#94A3B8"/>
  <polygon points="860,402 860,418 872,410" fill="#94A3B8"/>

  <text x="56" y="580" class="tiny">Builder-first architecture: your agent, your infra, your rules.</text>
</svg>
